<svg fill="none" height="1440" viewBox="0 0 2560 1440" width="2560" xmlns="http://www.w3.org/2000/svg" xmlns:xlink="http://www.w3.org/1999/xlink"><linearGradient id="a" gradientUnits="userSpaceOnUse" x1="1394.61" x2="1394.61" y1="0" y2="1440"><stop offset="0" stop-color="#101024"/><stop offset="1" stop-color="#05050e"/></linearGradient><path d="m0 0h2560v1440h-2560z" fill="#05050c"/><path d="m1201.98 635.773h-74.35l44.35 76.827 320.44-555.016 299.27 518.345 70.24-121.663 100.08 173.338 187.92-325.491 367.07 635.777h-375.85l87.85 152.15h-734.13l40.79-70.65h-361.2l185.1 320.61h-734.125l84.707-146.72h-666.142l244.708-423.845h-168.632l367.064-635.774 106.434 184.35 241.339-418.011zm-446.299 618.627 22.447 38.88h-44.893l-73.16 126.72h664.845l-173.55-300.61h-123.82l61.91-107.23-7.11-12.312h-179.701zm-677.0404 18.88h643.0474l10.899-18.88-222.262-384.965h-198.523zm665.4934-38.88 135.422-234.552h-270.843zm1059.106-538.471 56.25 97.428h-112.5l-86.78 150.297 101.47 175.736h-202.93l-29.24 50.65h664.85l-76.3-132.15h-335.19l167.59-290.286-88.53-153.338zm-232.94 403.461h156.74l-78.37-135.737zm-341.56-288.479 109.09 188.937h-218.17l-7.11 12.312 50.36 87.23h384.29l89.92-155.736-86.78-150.297h-311.46zm-166.55 288.479h77.63l-38.82-67.23zm755.32-81.5h289l-144.5-250.286zm156.05-270.286 156.04 270.286h352.76l-332.43-575.777zm-1367.355 247.9 72.786-126.069h-145.572zm171.94-257.808 76.059 131.739h-152.118l-63.747 110.413h252.764l101.395-175.622 101.392 175.622h14.23l97.53-168.936-10.14-17.555h-70.15l35.08-60.757-55.91-96.827h-267.54zm136.051 242.152h156.604l-78.302-135.622zm217.014 0h171.98l-85.99-148.937zm517.46-56.194 75.22-130.297h-150.45zm-1493.953-74.219h145.538l110.808-191.926 110.809 191.926h168.666l64.513-111.74-58.845-101.922h-228.356l114.177-197.762-94.887-164.35zm168.632 0h175.429l-87.715-151.926zm390.284 0h105.93l-52.965-91.74zm446.367-76.078h23.97l-11.99-20.757zm23.53-40.757 23.53 40.757h20.27l167.28-289.736 167.28 289.736h173.55l44.7-77.428-287.72-498.345zm575 40.757h66.32l-33.16-57.428zm-508.1 0h288.37l-144.19-249.736zm-483.832-55.662 47.298-81.922h-94.596zm-264.108-101.922h182.169l-91.085-157.762zm102.631-177.762 102.632 177.762h117.689l145.32-251.699 145.318 251.699h51.26l-332.427-575.773zm243.416 177.762h244.453l-122.228-211.699z" fill="url(#a)"/></svg>