<svg fill="none" height="1080" viewBox="0 0 1080 1080" width="1080" xmlns="http://www.w3.org/2000/svg" xmlns:xlink="http://www.w3.org/1999/xlink"><filter id="a" color-interpolation-filters="sRGB" filterUnits="userSpaceOnUse" height="875" width="505" x="405" y="205"><feFlood flood-opacity="0" result="BackgroundImageFix"/><feBlend in="SourceGraphic" in2="BackgroundImageFix" mode="normal" result="shape"/><feGaussianBlur result="effect1_foregroundBlur_10_223" stdDeviation="20"/></filter><filter id="b" color-interpolation-filters="sRGB" filterUnits="userSpaceOnUse" height="530" width="880" x="200" y="0"><feFlood flood-opacity="0" result="BackgroundImageFix"/><feBlend in="SourceGraphic" in2="BackgroundImageFix" mode="normal" result="shape"/><feGaussianBlur result="effect1_foregroundBlur_10_223" stdDeviation="20"/></filter><filter id="c" color-interpolation-filters="sRGB" filterUnits="userSpaceOnUse" height="465" width="445" x="0" y="615"><feFlood flood-opacity="0" result="BackgroundImageFix"/><feBlend in="SourceGraphic" in2="BackgroundImageFix" mode="normal" result="shape"/><feGaussianBlur result="effect1_foregroundBlur_10_223" stdDeviation="20"/></filter><g fill="#00f" fill-opacity=".7" filter="url(#a)"><path d="m445 245h425v40h-425z"/><path d="m830 245h40v450h-40z"/><path d="m570 655h300v40h-300z"/><path d="m570 655h40v385h-40z"/><path d="m830 655-385-370h40l385 370z"/><path d="m830 695-220 305v40l260-345z"/></g><g fill="#f00" fill-opacity=".7" filter="url(#b)"><path d="m240 40h800v40h-800z"/><path d="m240 40h40v450h-40z"/><path d="m240 450h425v40h-425z"/><path d="m1000 80-335 370v40l375-410z"/></g><g fill="#00f"><path d="m445 245h425v40h-425z"/><path d="m830 245h40v450h-40z"/><path d="m570 655h300v40h-300z"/><path d="m570 655h40v385h-40z"/></g><g fill="#0f0" fill-opacity=".7" filter="url(#c)"><path d="m365 655h40v385h-40z"/><path d="m40 655h365v40h-365z"/><path d="m365 1040-325-345h40l285 305z"/></g><path d="m365 655h40v385h-40z" fill="#0f0"/><path d="m40 655h365v40h-365z" fill="#0f0"/><path d="m240 40h800v40h-800z" fill="#f00"/><path d="m240 40h40v450h-40z" fill="#f00"/><path d="m240 450h425v40h-425z" fill="#f00"/></svg>